<mxfile host="app.diagrams.net" modified="2022-10-20T06:55:38.910Z" agent="5.0 (Windows NT 10.0; Win64; x64) AppleWebKit/537.36 (KHTML, like Gecko) Chrome/106.0.0.0 Safari/537.36" etag="9u6Q-HTF4QWAuk0gKBkZ" version="20.4.0" type="github">
  <diagram id="0z3ObpfhV8mngo4wG9x5" name="페이지-1">
    <mxGraphModel dx="1422" dy="762" grid="0" gridSize="10" guides="1" tooltips="1" connect="1" arrows="1" fold="1" page="1" pageScale="1" pageWidth="827" pageHeight="1169" math="0" shadow="0">
      <root>
        <mxCell id="0" />
        <mxCell id="1" parent="0" />
        <mxCell id="kWTv9ZNkGJkBucY-h7QW-1" value="Actor" style="shape=umlActor;verticalLabelPosition=bottom;verticalAlign=top;html=1;outlineConnect=0;" vertex="1" parent="1">
          <mxGeometry x="86" y="237" width="30" height="60" as="geometry" />
        </mxCell>
        <mxCell id="kWTv9ZNkGJkBucY-h7QW-2" value="Actor" style="shape=umlActor;verticalLabelPosition=bottom;verticalAlign=top;html=1;outlineConnect=0;" vertex="1" parent="1">
          <mxGeometry x="86" y="347" width="30" height="60" as="geometry" />
        </mxCell>
        <mxCell id="kWTv9ZNkGJkBucY-h7QW-3" value="Actor" style="shape=umlActor;verticalLabelPosition=bottom;verticalAlign=top;html=1;outlineConnect=0;" vertex="1" parent="1">
          <mxGeometry x="726" y="287" width="30" height="60" as="geometry" />
        </mxCell>
        <mxCell id="kWTv9ZNkGJkBucY-h7QW-4" value="" style="rounded=0;whiteSpace=wrap;html=1;" vertex="1" parent="1">
          <mxGeometry x="126" y="147" width="580" height="310" as="geometry" />
        </mxCell>
        <mxCell id="kWTv9ZNkGJkBucY-h7QW-7" value="회원가입" style="ellipse;whiteSpace=wrap;html=1;" vertex="1" parent="1">
          <mxGeometry x="176" y="207" width="70" height="40" as="geometry" />
        </mxCell>
        <mxCell id="kWTv9ZNkGJkBucY-h7QW-8" value="로그인" style="ellipse;whiteSpace=wrap;html=1;" vertex="1" parent="1">
          <mxGeometry x="176" y="297" width="70" height="40" as="geometry" />
        </mxCell>
        <mxCell id="kWTv9ZNkGJkBucY-h7QW-9" value="회원탈퇴" style="ellipse;whiteSpace=wrap;html=1;" vertex="1" parent="1">
          <mxGeometry x="271" y="157" width="70" height="40" as="geometry" />
        </mxCell>
        <mxCell id="kWTv9ZNkGJkBucY-h7QW-10" value="" style="ellipse;whiteSpace=wrap;html=1;" vertex="1" parent="1">
          <mxGeometry x="266" y="257" width="70" height="40" as="geometry" />
        </mxCell>
        <mxCell id="kWTv9ZNkGJkBucY-h7QW-11" value="정보수정" style="ellipse;whiteSpace=wrap;html=1;" vertex="1" parent="1">
          <mxGeometry x="268" y="307" width="70" height="40" as="geometry" />
        </mxCell>
        <mxCell id="kWTv9ZNkGJkBucY-h7QW-12" value="회원정보확인" style="ellipse;whiteSpace=wrap;html=1;" vertex="1" parent="1">
          <mxGeometry x="266" y="257" width="80" height="40" as="geometry" />
        </mxCell>
        <mxCell id="kWTv9ZNkGJkBucY-h7QW-13" value="로그아웃" style="ellipse;whiteSpace=wrap;html=1;" vertex="1" parent="1">
          <mxGeometry x="266" y="363" width="70" height="40" as="geometry" />
        </mxCell>
        <mxCell id="kWTv9ZNkGJkBucY-h7QW-14" value="글목록" style="ellipse;whiteSpace=wrap;html=1;" vertex="1" parent="1">
          <mxGeometry x="266" y="407" width="70" height="40" as="geometry" />
        </mxCell>
        <mxCell id="kWTv9ZNkGJkBucY-h7QW-15" value="글쓰기" style="ellipse;whiteSpace=wrap;html=1;" vertex="1" parent="1">
          <mxGeometry x="381" y="297" width="70" height="40" as="geometry" />
        </mxCell>
        <mxCell id="kWTv9ZNkGJkBucY-h7QW-16" value="상세글" style="ellipse;whiteSpace=wrap;html=1;" vertex="1" parent="1">
          <mxGeometry x="381" y="377" width="70" height="40" as="geometry" />
        </mxCell>
        <mxCell id="kWTv9ZNkGJkBucY-h7QW-17" value="글수정" style="ellipse;whiteSpace=wrap;html=1;" vertex="1" parent="1">
          <mxGeometry x="486" y="357" width="70" height="40" as="geometry" />
        </mxCell>
        <mxCell id="kWTv9ZNkGJkBucY-h7QW-18" value="글삭제" style="ellipse;whiteSpace=wrap;html=1;" vertex="1" parent="1">
          <mxGeometry x="486" y="407" width="70" height="40" as="geometry" />
        </mxCell>
        <mxCell id="kWTv9ZNkGJkBucY-h7QW-19" value="글관리" style="ellipse;whiteSpace=wrap;html=1;" vertex="1" parent="1">
          <mxGeometry x="606" y="367" width="70" height="40" as="geometry" />
        </mxCell>
        <mxCell id="kWTv9ZNkGJkBucY-h7QW-20" value="회원목록" style="ellipse;whiteSpace=wrap;html=1;" vertex="1" parent="1">
          <mxGeometry x="400" y="237" width="70" height="40" as="geometry" />
        </mxCell>
        <mxCell id="kWTv9ZNkGJkBucY-h7QW-22" value="목적시스템" style="text;html=1;resizable=0;autosize=1;align=center;verticalAlign=middle;points=[];fillColor=none;strokeColor=none;rounded=0;" vertex="1" parent="1">
          <mxGeometry x="366" y="117" width="80" height="30" as="geometry" />
        </mxCell>
        <mxCell id="kWTv9ZNkGJkBucY-h7QW-25" value="" style="endArrow=classic;html=1;rounded=0;" edge="1" parent="1">
          <mxGeometry width="50" height="50" relative="1" as="geometry">
            <mxPoint x="116" y="277" as="sourcePoint" />
            <mxPoint x="176" y="227" as="targetPoint" />
          </mxGeometry>
        </mxCell>
        <mxCell id="kWTv9ZNkGJkBucY-h7QW-29" value="" style="endArrow=classic;html=1;rounded=0;" edge="1" parent="1" source="kWTv9ZNkGJkBucY-h7QW-2">
          <mxGeometry width="50" height="50" relative="1" as="geometry">
            <mxPoint x="126" y="367" as="sourcePoint" />
            <mxPoint x="176" y="317" as="targetPoint" />
          </mxGeometry>
        </mxCell>
        <mxCell id="kWTv9ZNkGJkBucY-h7QW-30" value="" style="endArrow=classic;html=1;rounded=0;entryX=0.5;entryY=0;entryDx=0;entryDy=0;entryPerimeter=0;" edge="1" parent="1" target="kWTv9ZNkGJkBucY-h7QW-1">
          <mxGeometry width="50" height="50" relative="1" as="geometry">
            <mxPoint x="271" y="177" as="sourcePoint" />
            <mxPoint x="116" y="237" as="targetPoint" />
          </mxGeometry>
        </mxCell>
        <mxCell id="kWTv9ZNkGJkBucY-h7QW-31" value="" style="endArrow=classic;html=1;rounded=0;entryX=1;entryY=0;entryDx=0;entryDy=0;" edge="1" parent="1" target="kWTv9ZNkGJkBucY-h7QW-8">
          <mxGeometry width="50" height="50" relative="1" as="geometry">
            <mxPoint x="266" y="277" as="sourcePoint" />
            <mxPoint x="316" y="227" as="targetPoint" />
          </mxGeometry>
        </mxCell>
        <mxCell id="kWTv9ZNkGJkBucY-h7QW-32" value="" style="endArrow=classic;html=1;rounded=0;entryX=1;entryY=0.5;entryDx=0;entryDy=0;" edge="1" parent="1" target="kWTv9ZNkGJkBucY-h7QW-8">
          <mxGeometry width="50" height="50" relative="1" as="geometry">
            <mxPoint x="266" y="327" as="sourcePoint" />
            <mxPoint x="316" y="277" as="targetPoint" />
          </mxGeometry>
        </mxCell>
        <mxCell id="kWTv9ZNkGJkBucY-h7QW-33" value="" style="endArrow=classic;html=1;rounded=0;entryX=1;entryY=1;entryDx=0;entryDy=0;" edge="1" parent="1" target="kWTv9ZNkGJkBucY-h7QW-8">
          <mxGeometry width="50" height="50" relative="1" as="geometry">
            <mxPoint x="266" y="377" as="sourcePoint" />
            <mxPoint x="316" y="327" as="targetPoint" />
          </mxGeometry>
        </mxCell>
        <mxCell id="kWTv9ZNkGJkBucY-h7QW-34" value="" style="endArrow=classic;html=1;rounded=0;entryX=0.757;entryY=1;entryDx=0;entryDy=0;entryPerimeter=0;" edge="1" parent="1" target="kWTv9ZNkGJkBucY-h7QW-8">
          <mxGeometry width="50" height="50" relative="1" as="geometry">
            <mxPoint x="266" y="427" as="sourcePoint" />
            <mxPoint x="236" y="337" as="targetPoint" />
          </mxGeometry>
        </mxCell>
        <mxCell id="kWTv9ZNkGJkBucY-h7QW-35" value="" style="endArrow=classic;html=1;rounded=0;entryX=1;entryY=0.5;entryDx=0;entryDy=0;exitX=0;exitY=0.5;exitDx=0;exitDy=0;exitPerimeter=0;" edge="1" parent="1" source="kWTv9ZNkGJkBucY-h7QW-20" target="kWTv9ZNkGJkBucY-h7QW-12">
          <mxGeometry width="50" height="50" relative="1" as="geometry">
            <mxPoint x="400" y="277" as="sourcePoint" />
            <mxPoint x="450" y="227" as="targetPoint" />
          </mxGeometry>
        </mxCell>
        <mxCell id="kWTv9ZNkGJkBucY-h7QW-36" value="" style="endArrow=classic;html=1;rounded=0;entryX=1;entryY=1;entryDx=0;entryDy=0;exitX=0.029;exitY=0.325;exitDx=0;exitDy=0;exitPerimeter=0;" edge="1" parent="1" source="kWTv9ZNkGJkBucY-h7QW-20" target="kWTv9ZNkGJkBucY-h7QW-9">
          <mxGeometry width="50" height="50" relative="1" as="geometry">
            <mxPoint x="396" y="277" as="sourcePoint" />
            <mxPoint x="446" y="237" as="targetPoint" />
          </mxGeometry>
        </mxCell>
        <mxCell id="kWTv9ZNkGJkBucY-h7QW-37" value="" style="endArrow=classic;html=1;rounded=0;entryX=0.362;entryY=0.581;entryDx=0;entryDy=0;entryPerimeter=0;exitX=0.057;exitY=0.775;exitDx=0;exitDy=0;exitPerimeter=0;" edge="1" parent="1" source="kWTv9ZNkGJkBucY-h7QW-20" target="kWTv9ZNkGJkBucY-h7QW-4">
          <mxGeometry width="50" height="50" relative="1" as="geometry">
            <mxPoint x="400" y="297" as="sourcePoint" />
            <mxPoint x="450" y="247" as="targetPoint" />
          </mxGeometry>
        </mxCell>
        <mxCell id="kWTv9ZNkGJkBucY-h7QW-38" value="" style="endArrow=classic;html=1;rounded=0;entryX=0;entryY=1;entryDx=0;entryDy=0;" edge="1" parent="1" target="kWTv9ZNkGJkBucY-h7QW-15">
          <mxGeometry width="50" height="50" relative="1" as="geometry">
            <mxPoint x="326" y="415" as="sourcePoint" />
            <mxPoint x="376" y="367" as="targetPoint" />
          </mxGeometry>
        </mxCell>
        <mxCell id="kWTv9ZNkGJkBucY-h7QW-39" value="" style="endArrow=classic;html=1;rounded=0;entryX=0;entryY=0.5;entryDx=0;entryDy=0;" edge="1" parent="1" target="kWTv9ZNkGJkBucY-h7QW-16">
          <mxGeometry width="50" height="50" relative="1" as="geometry">
            <mxPoint x="336" y="427" as="sourcePoint" />
            <mxPoint x="386" y="377" as="targetPoint" />
          </mxGeometry>
        </mxCell>
        <mxCell id="kWTv9ZNkGJkBucY-h7QW-40" value="" style="endArrow=classic;html=1;rounded=0;entryX=1;entryY=0.5;entryDx=0;entryDy=0;" edge="1" parent="1" target="kWTv9ZNkGJkBucY-h7QW-16">
          <mxGeometry width="50" height="50" relative="1" as="geometry">
            <mxPoint x="486" y="377" as="sourcePoint" />
            <mxPoint x="436" y="427" as="targetPoint" />
          </mxGeometry>
        </mxCell>
        <mxCell id="kWTv9ZNkGJkBucY-h7QW-41" value="" style="endArrow=classic;html=1;rounded=0;exitX=0;exitY=0.5;exitDx=0;exitDy=0;entryX=1;entryY=1;entryDx=0;entryDy=0;" edge="1" parent="1" source="kWTv9ZNkGJkBucY-h7QW-18" target="kWTv9ZNkGJkBucY-h7QW-16">
          <mxGeometry width="50" height="50" relative="1" as="geometry">
            <mxPoint x="446" y="457" as="sourcePoint" />
            <mxPoint x="436" y="434" as="targetPoint" />
          </mxGeometry>
        </mxCell>
        <mxCell id="kWTv9ZNkGJkBucY-h7QW-42" value="" style="endArrow=classic;html=1;rounded=0;entryX=1;entryY=0.5;entryDx=0;entryDy=0;exitX=0.057;exitY=0.775;exitDx=0;exitDy=0;exitPerimeter=0;" edge="1" parent="1" source="kWTv9ZNkGJkBucY-h7QW-19" target="kWTv9ZNkGJkBucY-h7QW-18">
          <mxGeometry width="50" height="50" relative="1" as="geometry">
            <mxPoint x="606" y="397" as="sourcePoint" />
            <mxPoint x="656" y="347" as="targetPoint" />
          </mxGeometry>
        </mxCell>
        <mxCell id="kWTv9ZNkGJkBucY-h7QW-43" value="" style="endArrow=classic;html=1;rounded=0;exitX=0;exitY=0.5;exitDx=0;exitDy=0;entryX=1;entryY=0.5;entryDx=0;entryDy=0;" edge="1" parent="1" source="kWTv9ZNkGJkBucY-h7QW-19" target="kWTv9ZNkGJkBucY-h7QW-17">
          <mxGeometry width="50" height="50" relative="1" as="geometry">
            <mxPoint x="446" y="457" as="sourcePoint" />
            <mxPoint x="496" y="407" as="targetPoint" />
          </mxGeometry>
        </mxCell>
        <mxCell id="kWTv9ZNkGJkBucY-h7QW-44" value="" style="endArrow=classic;html=1;rounded=0;exitX=0.014;exitY=0.25;exitDx=0;exitDy=0;exitPerimeter=0;entryX=1;entryY=0.5;entryDx=0;entryDy=0;" edge="1" parent="1" source="kWTv9ZNkGJkBucY-h7QW-19" target="kWTv9ZNkGJkBucY-h7QW-15">
          <mxGeometry width="50" height="50" relative="1" as="geometry">
            <mxPoint x="446" y="457" as="sourcePoint" />
            <mxPoint x="496" y="407" as="targetPoint" />
          </mxGeometry>
        </mxCell>
        <mxCell id="kWTv9ZNkGJkBucY-h7QW-45" value="" style="endArrow=classic;html=1;rounded=0;entryX=1;entryY=0;entryDx=0;entryDy=0;" edge="1" parent="1" target="kWTv9ZNkGJkBucY-h7QW-19">
          <mxGeometry width="50" height="50" relative="1" as="geometry">
            <mxPoint x="726" y="327" as="sourcePoint" />
            <mxPoint x="746" y="257" as="targetPoint" />
          </mxGeometry>
        </mxCell>
        <mxCell id="kWTv9ZNkGJkBucY-h7QW-46" value="" style="endArrow=classic;html=1;rounded=0;entryX=1;entryY=0.5;entryDx=0;entryDy=0;" edge="1" parent="1" target="kWTv9ZNkGJkBucY-h7QW-20">
          <mxGeometry width="50" height="50" relative="1" as="geometry">
            <mxPoint x="726" y="317" as="sourcePoint" />
            <mxPoint x="496" y="407" as="targetPoint" />
          </mxGeometry>
        </mxCell>
        <mxCell id="kWTv9ZNkGJkBucY-h7QW-47" value="일반사용자" style="rounded=0;whiteSpace=wrap;html=1;strokeColor=none;fillColor=default;" vertex="1" parent="1">
          <mxGeometry x="53" y="300" width="70" height="30" as="geometry" />
        </mxCell>
        <mxCell id="kWTv9ZNkGJkBucY-h7QW-48" value="회원" style="rounded=0;whiteSpace=wrap;html=1;strokeColor=none;fillColor=default;" vertex="1" parent="1">
          <mxGeometry x="71" y="409.5" width="50" height="35" as="geometry" />
        </mxCell>
        <mxCell id="kWTv9ZNkGJkBucY-h7QW-49" value="관리자" style="rounded=0;whiteSpace=wrap;html=1;strokeColor=none;fillColor=default;" vertex="1" parent="1">
          <mxGeometry x="716" y="347" width="50" height="30" as="geometry" />
        </mxCell>
        <mxCell id="kWTv9ZNkGJkBucY-h7QW-50" value="&amp;lt;&amp;lt;include&amp;gt;&amp;gt;" style="text;html=1;resizable=0;autosize=1;align=center;verticalAlign=middle;points=[];fillColor=none;strokeColor=none;rounded=0;rotation=15;" vertex="1" parent="1">
          <mxGeometry x="538" y="337" width="84" height="26" as="geometry" />
        </mxCell>
        <mxCell id="kWTv9ZNkGJkBucY-h7QW-51" value="&amp;lt;&amp;lt;include&amp;gt;&amp;gt;" style="text;html=1;resizable=0;autosize=1;align=center;verticalAlign=middle;points=[];fillColor=none;strokeColor=none;rounded=0;rotation=-15;" vertex="1" parent="1">
          <mxGeometry x="529" y="385.5" width="84" height="26" as="geometry" />
        </mxCell>
        <mxCell id="kWTv9ZNkGJkBucY-h7QW-52" value="&amp;lt;&amp;lt;include&amp;gt;&amp;gt;" style="text;html=1;resizable=0;autosize=1;align=center;verticalAlign=middle;points=[];fillColor=none;strokeColor=none;rounded=0;rotation=-30;" vertex="1" parent="1">
          <mxGeometry x="552" y="411.5" width="84" height="26" as="geometry" />
        </mxCell>
        <mxCell id="kWTv9ZNkGJkBucY-h7QW-53" value="&amp;lt;&amp;lt;include&amp;gt;&amp;gt;" style="text;html=1;resizable=0;autosize=1;align=center;verticalAlign=middle;points=[];fillColor=none;strokeColor=none;rounded=0;rotation=45;" vertex="1" parent="1">
          <mxGeometry x="336" y="197" width="84" height="26" as="geometry" />
        </mxCell>
        <mxCell id="kWTv9ZNkGJkBucY-h7QW-54" value="&amp;lt;&amp;lt;include&amp;gt;&amp;gt;" style="text;html=1;resizable=0;autosize=1;align=center;verticalAlign=middle;points=[];fillColor=none;strokeColor=none;rounded=0;rotation=-10;" vertex="1" parent="1">
          <mxGeometry x="320" y="239" width="84" height="26" as="geometry" />
        </mxCell>
        <mxCell id="kWTv9ZNkGJkBucY-h7QW-55" value="&amp;lt;&amp;lt;include&amp;gt;&amp;gt;" style="text;html=1;resizable=0;autosize=1;align=center;verticalAlign=middle;points=[];fillColor=none;strokeColor=none;rounded=0;rotation=-40;" vertex="1" parent="1">
          <mxGeometry x="323" y="277" width="84" height="26" as="geometry" />
        </mxCell>
        <mxCell id="kWTv9ZNkGJkBucY-h7QW-56" value="&amp;lt;&amp;lt;exclude&amp;gt;&amp;gt;" style="text;html=1;resizable=0;autosize=1;align=center;verticalAlign=middle;points=[];fillColor=none;strokeColor=none;rounded=0;rotation=-35;" vertex="1" parent="1">
          <mxGeometry x="207" y="254" width="87" height="26" as="geometry" />
        </mxCell>
        <mxCell id="kWTv9ZNkGJkBucY-h7QW-57" value="&amp;lt;&amp;lt;exclude&amp;gt;&amp;gt;" style="text;html=1;resizable=0;autosize=1;align=center;verticalAlign=middle;points=[];fillColor=none;strokeColor=none;rounded=0;" vertex="1" parent="1">
          <mxGeometry x="226" y="292" width="87" height="26" as="geometry" />
        </mxCell>
        <mxCell id="kWTv9ZNkGJkBucY-h7QW-58" value="&amp;lt;&amp;lt;exclude&amp;gt;&amp;gt;" style="text;html=1;resizable=0;autosize=1;align=center;verticalAlign=middle;points=[];fillColor=none;strokeColor=none;rounded=0;rotation=60;" vertex="1" parent="1">
          <mxGeometry x="193" y="377" width="87" height="26" as="geometry" />
        </mxCell>
        <mxCell id="kWTv9ZNkGJkBucY-h7QW-59" value="&amp;lt;&amp;lt;exclude&amp;gt;&amp;gt;" style="text;html=1;resizable=0;autosize=1;align=center;verticalAlign=middle;points=[];fillColor=none;strokeColor=none;rounded=0;rotation=15;" vertex="1" parent="1">
          <mxGeometry x="236" y="337" width="87" height="26" as="geometry" />
        </mxCell>
      </root>
    </mxGraphModel>
  </diagram>
</mxfile>
